<svg width="128" height="128" viewBox="0 0 128 128" fill="none" xmlns="http://www.w3.org/2000/svg">
    <path d="M100 12H28C19.1634 12 12 19.1634 12 28V100C12 108.837 19.1634 116 28 116H100C108.837 116 116 108.837 116 100V28C116 19.1634 108.837 12 100 12Z" fill="white" />
    <path d="M100 12H28C19.1634 12 12 19.1634 12 28V100C12 108.837 19.1634 116 28 116H100C108.837 116 116 108.837 116 100V28C116 19.1634 108.837 12 100 12Z" stroke="#2563EB" stroke-width="6" />
    <path d="M64 18V110M18 64H110" stroke="#E5E7EB" stroke-width="2" />
    <path d="M34 59.6919L57.0769 45.8457L80.1538 59.6919L57.0769 73.538L34 59.6919Z" fill="#93C5FD" />
    <path d="M34 59.6914V82.7683L57.0769 96.6145V73.5376L34 59.6914Z" fill="#60A5FA" />
    <path d="M80.1531 59.6914V82.7683L57.0762 96.6145V73.5376L80.1531 59.6914Z" fill="#3B82F6" />
    <path d="M57.0762 41.2308L75.5377 32L93.9992 41.2308L75.5377 50.4615L57.0762 41.2308Z" fill="#BFDBFE" />
    <path d="M57.0762 41.2305V59.692L75.5377 68.9228V50.4612L57.0762 41.2305Z" fill="#60A5FA" />
    <path d="M94.0006 41.2305V59.692L75.5391 68.9228V50.4612L94.0006 41.2305Z" fill="#2563EB" />
</svg>