<svg xmlns="http://www.w3.org/2000/svg" xml:space="preserve" width="512" height="512" style="enable-background:new 0 0 512 512" viewBox="0 0 511.998 511.998"><path fill="#ffc66c" d="M442.807 300.583h39.209c11.044 0 19.995-8.956 19.989-20l-.027-49.448c-.006-11.035-8.954-19.978-19.989-19.978h-39.245a190.842 190.842 0 0 0-23.117-55.681l27.716-27.716c7.809-7.809 7.806-20.469-.005-28.274L412.36 64.533c-7.807-7.802-20.46-7.799-28.263.005l-27.732 27.734a190.876 190.876 0 0 0-55.651-23.049V29.996c0-11.04-8.949-19.989-19.989-19.989h-49.447c-11.04 0-19.989 8.949-19.989 19.989v39.227a190.865 190.865 0 0 0-55.651 23.049L127.904 64.54c-7.804-7.804-20.457-7.807-28.263-.005L64.663 99.486c-7.811 7.806-7.814 20.466-.005 28.274l27.716 27.716a190.87 190.87 0 0 0-23.117 55.681H30.011c-11.035 0-19.983 8.943-19.989 19.978l-.027 49.447c-.006 11.044 8.945 20 19.989 20h39.209a190.878 190.878 0 0 0 23.08 55.78L64.54 384.095c-7.804 7.804-7.807 20.457-.005 28.263l34.952 34.978c7.806 7.811 20.466 7.814 28.273.005l27.716-27.716a190.867 190.867 0 0 0 55.81 23.148V482c0 11.04 8.949 19.989 19.989 19.989h49.447c11.04 0 19.989-8.949 19.989-19.989v-39.227c20-4.77 38.785-12.666 55.81-23.148l27.716 27.716c7.809 7.809 20.469 7.806 28.274-.005l34.952-34.978c7.802-7.807 7.799-20.46-.005-28.263l-27.733-27.733a190.834 190.834 0 0 0 23.082-55.779z" data-original="#ffc66c"/><circle cx="256" cy="255.998" r="123.932" fill="#b3b6c3" data-original="#b3b6c3"/><circle cx="256" cy="255.998" r="79.956" fill="#fff" data-original="#ffffff"/><path d="M256 389.925c-35.773 0-69.405-13.93-94.7-39.226s-39.226-58.927-39.226-94.7 13.93-69.405 39.226-94.7c40.047-40.047 101.281-50.579 152.373-26.21 4.982 2.377 7.094 8.341 4.718 13.324-2.377 4.981-8.341 7.092-13.324 4.718-43.466-20.734-95.562-11.77-129.634 22.302-21.52 21.519-33.372 50.131-33.372 80.566 0 30.434 11.852 59.047 33.372 80.566 21.52 21.52 50.132 33.372 80.566 33.372s59.047-11.852 80.566-33.372c35.37-35.37 43.613-88.906 20.514-133.219-2.552-4.894-.652-10.931 4.243-13.483 4.895-2.553 10.931-.652 13.483 4.243 13.074 25.08 17.815 53.201 13.712 81.324-4.186 28.687-17.262 54.714-37.816 75.27-25.296 25.294-58.927 39.225-94.701 39.225z" data-original="#000000"/><path d="M344.045 178.773a9.96 9.96 0 0 1-7.105-2.965l-.374-.375c-3.903-3.903-3.903-10.231 0-14.135 3.903-3.903 10.231-3.903 14.135 0l.449.452c3.882 3.924 3.849 10.251-.076 14.134a9.965 9.965 0 0 1-7.029 2.889zm-87.851 167.245c-9.638 0-19.382-1.557-28.895-4.751-5.232-1.757-8.05-7.424-6.293-12.656 1.757-5.233 7.424-8.052 12.656-6.293 25.377 8.52 52.891 2.066 71.807-16.849 13.215-13.214 20.492-30.782 20.492-49.47s-7.277-36.256-20.491-49.47c-13.215-13.215-30.783-20.492-49.471-20.492s-36.256 7.277-49.47 20.491c-18.739 18.738-25.264 46.04-17.033 71.251 1.713 5.247-1.151 10.89-6.398 12.603-5.247 1.714-10.89-1.15-12.603-6.398-10.58-32.406-2.189-67.501 21.901-91.59 16.99-16.99 39.577-26.346 63.604-26.346s46.615 9.357 63.605 26.347c16.99 16.99 26.346 39.577 26.346 63.604s-9.357 46.615-26.347 63.605c-17.225 17.225-39.998 26.414-63.41 26.414z" data-original="#000000"/><path d="M199.771 322.839a9.96 9.96 0 0 1-7.033-2.894l-.343-.342c-3.903-3.903-3.903-10.231 0-14.135 3.903-3.903 10.231-3.903 14.135 0l.276.275c3.922 3.885 3.952 10.212.067 14.134a9.96 9.96 0 0 1-7.102 2.962z" data-original="#000000"/><path d="M280.724 511.986h-49.448c-16.533 0-29.984-13.451-29.984-29.984v-31.497a200.515 200.515 0 0 1-44.219-18.342l-22.245 22.246c-5.664 5.663-13.194 8.782-21.202 8.782h-.005c-8.011-.001-15.541-3.123-21.203-8.789l-34.952-34.979c-11.682-11.69-11.679-30.708.008-42.395l22.267-22.268a200.484 200.484 0 0 1-18.284-44.184H29.984c-8.012 0-15.543-3.121-21.207-8.788S-.004 288.588 0 280.576l.027-49.448c.009-16.524 13.46-29.967 29.984-29.967h31.52a200.563 200.563 0 0 1 18.305-44.09L57.59 134.826c-5.664-5.665-8.783-13.197-8.782-21.207.001-8.012 3.123-15.541 8.789-21.204l34.978-34.952c11.69-11.684 30.708-11.679 42.395.008l22.268 22.267a200.556 200.556 0 0 1 44.055-18.248V29.996c0-16.533 13.451-29.984 29.984-29.984h49.448c16.533 0 29.984 13.451 29.984 29.984v31.497a200.576 200.576 0 0 1 44.055 18.248l22.268-22.268c11.687-11.687 30.705-11.69 42.395-.007l34.978 34.951c5.667 5.663 8.788 13.193 8.789 21.204.001 8.011-3.117 15.542-8.782 21.207l-22.246 22.245a200.543 200.543 0 0 1 18.305 44.09h31.52c16.524 0 29.975 13.444 29.984 29.967l.027 49.448c.005 8.012-3.112 15.545-8.776 21.212s-13.196 8.788-21.207 8.788h-31.474a200.524 200.524 0 0 1-18.284 44.184l22.268 22.268c11.687 11.687 11.69 30.705.007 42.395l-34.951 34.978c-5.663 5.667-13.194 8.788-21.204 8.789h-.005c-8.01 0-15.538-3.118-21.202-8.782l-22.245-22.246a200.495 200.495 0 0 1-44.219 18.342v31.497c-.003 16.532-13.453 29.983-29.986 29.983zM155.481 409.631a9.97 9.97 0 0 1 5.236 1.483 180.716 180.716 0 0 0 52.889 21.938 9.995 9.995 0 0 1 7.676 9.722v39.227c0 5.511 4.484 9.995 9.995 9.995h49.448c5.511 0 9.995-4.484 9.995-9.995v-39.227a9.995 9.995 0 0 1 7.676-9.722 180.716 180.716 0 0 0 52.889-21.938 9.996 9.996 0 0 1 12.307 1.443l27.716 27.716c1.888 1.888 4.399 2.927 7.069 2.927s5.18-1.041 7.068-2.929l34.952-34.978c3.894-3.897 3.893-10.236-.003-14.131l-27.733-27.734a9.993 9.993 0 0 1-1.448-12.298 180.686 180.686 0 0 0 21.873-52.861 9.994 9.994 0 0 1 9.724-7.683h39.209c2.671 0 5.181-1.04 7.069-2.929s2.926-4.4 2.925-7.07l-.027-49.448c-.003-5.508-4.487-9.989-9.995-9.989h-39.245a9.997 9.997 0 0 1-9.721-7.669 180.65 180.65 0 0 0-21.908-52.767 9.995 9.995 0 0 1 1.443-12.307l27.716-27.716a9.932 9.932 0 0 0 2.927-7.069 9.93 9.93 0 0 0-2.929-7.068l-34.978-34.952c-3.897-3.894-10.236-3.894-14.131.003L363.431 99.34a9.99 9.99 0 0 1-12.298 1.448 180.712 180.712 0 0 0-52.739-21.843 9.995 9.995 0 0 1-7.676-9.722V29.996c0-5.511-4.484-9.995-9.995-9.995h-49.448c-5.511 0-9.995 4.484-9.995 9.995v39.227a9.995 9.995 0 0 1-7.676 9.722 180.735 180.735 0 0 0-52.739 21.843 9.995 9.995 0 0 1-12.298-1.448l-27.733-27.733c-3.897-3.897-10.235-3.897-14.131-.003l-34.979 34.952c-1.889 1.888-2.929 4.398-2.929 7.068s1.039 5.181 2.927 7.069l27.716 27.716a9.994 9.994 0 0 1 1.443 12.307 180.699 180.699 0 0 0-21.908 52.767 9.995 9.995 0 0 1-9.721 7.669H30.011c-5.508 0-9.992 4.481-9.995 9.99l-.027 49.446a9.93 9.93 0 0 0 2.925 7.071 9.93 9.93 0 0 0 7.069 2.929h39.209a9.996 9.996 0 0 1 9.724 7.683 180.724 180.724 0 0 0 21.873 52.861 9.994 9.994 0 0 1-1.448 12.298l-27.733 27.733c-3.896 3.896-3.897 10.235-.003 14.131l34.952 34.979a9.927 9.927 0 0 0 7.068 2.929h.002a9.927 9.927 0 0 0 7.067-2.927l27.716-27.716a9.98 9.98 0 0 1 7.071-2.928z" data-original="#000000"/></svg>